<svg xmlns="http://www.w3.org/2000/svg" xml:space="preserve" width="1507.861" height="954.142" style="shape-rendering:geometricPrecision;text-rendering:geometricPrecision;image-rendering:optimizeQuality;fill-rule:evenodd;clip-rule:evenodd" viewBox="0 0 10927 6914"><defs><style>.fil0,.fil1{fill:currentColor}.fil1{fill-rule:nonzero}</style></defs><g id="Layer_x0020_1"><g id="_2000343351616"><path d="M5420 2893c-114-177-323-439-221-654 185-387 769-608 787-1537h-42c-10 399-821 1729-1334 939-20-30-41-60-61-91-15-23-30-47-44-72-21-37-39-78-39-121 0-60 34-117 65-166 24-38 50-75 75-113 36-52 71-104 105-157 97-151 203-304 342-419 149-125 319-191 508-230 306-63 622-15 899 127 177 91 309 217 435 368 94 113 182 235 287 339 200 199 396 232 654 312l241 417-140 381-344 264-1292-3 157 244 1212 3 479-363 360-991-914-284c-88-27-166-90-232-154-81-78-154-166-228-251-163-190-337-384-563-500C6245 14 5872-42 5512 32c-543 112-759 370-1047 817L2418 4024h1137l194-194 506-505-299-518 328-1224 26 41 964 1495z" class="fil0"/><path d="m5598 4024 329-329-157-272 172-643 762 1244h269l-879-1463-146-244-250 388-533 827-317 492zM6627 917c153 0 277 124 277 277h-554c0-153 124-277 277-277" class="fil0"/><path d="m941 4752-436 558-436-558H0v1050h211v-550l259 325h69l260-325v550h211V4752zm207 534c-5 296 250 541 547 535 297 6 555-239 550-535 5-295-253-541-550-534-297-7-552 239-547 534m880 0c0 199-143 339-332 339-190 0-331-140-331-339 0-198 141-339 331-339 189 0 332 144 332 339m346 89c0 274 184 446 437 446 250 0 438-172 438-446v-605h-211v621c0 150-91 234-227 234-133 0-226-84-226-234v-621h-211zm1730-605v616l-598-634h-69v1050h211v-619l597 638h70V4770zm640 1032h211v-841h331v-191h-872v191h330zm1190 0h226l-459-1050h-70l-461 1050h226l58-134h422zm-131-308h-276l138-349zm458 308h211V4770h-211zm1074-1032v616l-598-634h-69v1050h211v-619l597 638h70V4770zm441 1032h291c361 0 561-225 561-517 0-296-200-515-561-515h-291zm82-74v-884h209c308 0 477 192 477 441 0 245-169 443-477 443zm1424 90c292 0 530-232 530-532 0-302-238-531-530-531-294 0-528 229-528 531 0 299 233 532 528 532m2-77c-255 0-444-199-444-456 0-258 189-455 444-455 251 0 442 198 442 455s-191 456-442 456m1182 77c195 0 370-99 461-261v-263h-461v75h379v170c-75 124-211 204-375 204-259 0-447-201-447-458s188-455 444-455c149 0 271 69 350 178l61-49c-92-126-241-204-412-204-294 0-529 229-529 531 0 299 232 532 529 532M1687 6703c-2 117 98 214 217 211 79 0 145-38 181-101l-63-45q-43.5 69-117 69c-76 0-132-56-132-134 0-77 56-134 132-134 49 0 88 23 117 68l63-44c-37-64-103-101-180-101-119-3-219 94-218 211m861 0c-1 117 99 214 217 211 117 3 219-94 217-211 2-117-100-214-217-211-118-3-218 94-217 211m348 0c0 78-56 134-131 134s-131-56-131-134c0-79 56-134 131-134s131 57 131 134m840-204v243l-237-250h-27v415h83v-245l236 252h28v-415zm567 325c32 55 88 90 158 90 81 0 142-47 142-122 0-55-32-89-100-119l-47-21c-34-15-47-25-47-47 0-25 21-39 50-39 31 0 57 15 78 47l57-44c-25-47-72-77-135-77-77 0-135 45-135 115 0 54 37 90 99 117l44 20c39 18 52 27 52 51 0 28-22 45-58 45-45 0-74-23-100-59zm789-86c0 108 73 176 173 176 99 0 173-68 173-176v-239h-83v245c0 60-36 93-90 93-52 0-89-33-89-93v-245h-84zm856 169h262v-76h-179v-332h-83zm758 0h83v-333h131v-75h-345v75h131zm688 0h84v-408h-84zm860-408v243l-236-250h-28v415h84v-245l236 252h28v-415zm573 204c-2 117 98 214 218 211 42 0 81-10 115-30 34-21 61-48 79-80v-121h-196v72h113v34c-23 31-61 50-108 50-81 0-136-57-136-136 0-78 54-134 131-134q70.5 0 114 60l59-49c-39-56-100-88-171-88-121-2-221 93-218 211" class="fil1"/></g></g></svg>