<svg xmlns="http://www.w3.org/2000/svg" xml:space="preserve" width="2155.771" height="390.24" style="shape-rendering:geometricPrecision;text-rendering:geometricPrecision;image-rendering:optimizeQuality;fill-rule:evenodd;clip-rule:evenodd" viewBox="0 0 11517 2085"><defs><style>.fil0,.fil1{fill:currentColor}.fil1{fill-rule:nonzero}</style></defs><g id="Layer_x0020_1"><g id="_2000002404048"><path d="M1555 1499c-59-92-167-228-114-339 96-200 398-315 408-796h-22c-6 207-425 895-691 486-11-16-21-31-32-47-8-12-16-24-23-37-11-20-20-40-20-63 0-31 18-61 34-86 12-20 26-39 39-58 18-27 36-54 54-82 50-78 105-157 177-217 78-65 166-99 264-119 158-33 322-8 465 66 92 47 160 112 226 191 48 58 94 121 148 175 104 103 206 120 339 161l125 217-73 197-178 137-669-2 81 127 628 1 248-188 187-513-474-147c-45-14-86-47-120-80-42-40-80-86-118-130-85-99-175-199-292-259-169-87-362-116-549-77-281 58-393 191-542 423L0 2085h589l101-101 262-261-155-269 170-634 13 21 500 775z" class="fil0"/><path d="m1648 2085 170-170-82-141 90-334 394 645h140l-455-758-76-126-129 200-277 429-164 255zM2181 475c79 0 143 64 143 143h-287c0-79 65-143 144-143" class="fil0"/><path d="m4155 427-321 412-322-412h-51v775h156V796l191 240h51l191-240v406h156V427zm153 394c-4 218 184 399 403 394 219 5 409-176 406-394 3-218-187-398-406-394-219-4-407 176-403 394m648 0c0 147-104 250-244 250-141 0-244-103-244-250 0-146 103-250 244-250 140 0 244 106 244 250m255 66c0 202 136 328 323 328 184 0 323-126 323-328V441h-156v457c0 111-67 173-167 173-98 0-167-62-167-173V441h-156zm1276-446v454l-441-468h-51v775h156V745l440 470h52V441zm472 761h155V582h245V441h-643v141h243zm877 0h167l-339-775h-51l-340 775h167l42-100h312zm-97-227h-202l101-257zm338 227h156V441h-156zm792-761v454l-441-468h-51v775h156V745l440 470h52V441zm326 761h214c266 0 414-166 414-382 0-218-148-379-414-379h-214zm60-55V495h154c227 0 351 142 351 325 0 181-124 327-351 327zm1050 66c215 0 390-170 390-392s-175-392-390-392c-217 0-390 170-390 392 0 220 172 392 390 392m1-56c-188 0-327-147-327-337s139-335 327-335c185 0 326 146 326 335 0 190-141 337-326 337m871 56c144 0 273-73 340-192V827h-340v55h280v126c-55 91-155 150-276 150-192 0-330-148-330-338 0-189 138-335 327-335 110 0 200 51 259 131l44-36c-68-93-177-151-304-151-216 0-389 170-389 392 0 220 170 392 389 392M3491 1642c-2 86 72 158 160 156 58 0 107-28 133-75l-47-33c-21 34-50 51-86 51-56 0-97-41-97-99 0-57 41-99 97-99 36 0 65 17 86 51l47-33c-27-47-76-75-133-75-87-2-161 70-160 156m635 0c-2 86 73 158 159 156 87 2 162-70 160-156 2-86-73-158-160-156-86-2-161 70-159 156m256 0c0 58-41 99-96 99-56 0-97-41-97-99s41-99 97-99c55 0 96 42 96 99m619-150v179l-174-185h-21v306h62v-180l174 186h20v-306zm418 239c24 41 66 67 117 67 60 0 105-35 105-90 0-41-24-66-74-88l-35-15c-25-12-35-19-35-35 0-19 16-29 38-29s42 11 57 34l42-32c-19-34-53-57-99-57-57 0-100 34-100 85 0 40 27 66 73 87l32 14c29 14 38 20 38 38 0 20-16 33-42 33-33 0-55-17-74-44zm582-63c0 80 54 130 128 130 73 0 127-50 127-130v-176h-61v180c0 44-27 69-66 69s-66-25-66-69v-180h-62zm631 124h193v-55h-132v-245h-61zm559 0h61v-245h97v-55h-254v55h96zm507 0h62v-300h-62zm634-300v179l-174-185h-20v306h61v-180l174 186h21v-306zm422 150c-1 86 73 158 161 156 32 0 60-8 85-23s45-35 59-59v-89h-145v54h83v24c-17 24-45 38-79 38-60 0-100-43-100-101 0-57 39-99 96-99 35 0 63 15 84 44l44-36c-29-41-74-65-127-65-89-1-162 69-161 156" class="fil1"/></g></g></svg>