<svg xmlns="http://www.w3.org/2000/svg" xml:space="preserve" width="390.8mm" height="975.844" style="shape-rendering:geometricPrecision;text-rendering:geometricPrecision;image-rendering:optimizeQuality;fill-rule:evenodd;clip-rule:evenodd" viewBox="0 0 10544 6966"><defs><style>.fil0{fill:currentColor}</style></defs><g id="Layer_x0020_1"><g id="_2000002061920"><path d="M5197 5008c-198-307-560-760-382-1132 320-670 1330-1053 1362-2660h-73c-18 691-1421 2991-2309 1624-35-52-71-104-105-156-27-41-54-82-77-125-37-65-67-135-67-211 0-103 58-201 112-286 42-66 86-131 130-196 61-90 122-180 181-272 168-261 351-525 592-725 259-216 553-330 880-398 529-109 1077-26 1557 220 306 157 533 376 752 637 163 195 316 407 497 587 346 343 686 401 1131 539l417 723-241 658-596 457-2236-5 272 424 2098 5 828-629 624-1715-1582-492c-153-47-288-157-401-266-140-135-268-288-395-436-283-329-584-664-976-865C6625 24 5980-73 5357 56c-941 194-1314 640-1813 1413L0 6966h1969l335-336 875-875-517-896 568-2118 45 70 1669 2588z" class="fil0"/><path d="m5505 6966 569-569-272-471 298-1114 1319 2154h467L6364 4433l-253-422-432 671-923 1431-550 853zM7287 1587c265 0 479 214 479 479h-959c0-265 215-479 480-479" class="fil0"/></g></g></svg>